<?xml version="1.0" encoding="UTF-8"?>
<svg id="Layer_2" data-name="Layer 2" xmlns="http://www.w3.org/2000/svg" viewBox="0 0 36.762 13.78">
  <defs>
    <style>
      .cls-1 {
        fill: #fff;
      }
    </style>
  </defs>
  <g id="Layer_3" data-name="Layer 3">
    <path class="cls-1" d="m21.732,7.129v-3.233c0-.914,0-1.827,0-2.741,0-.128-.03-.277.023-.38.105-.203.226-.482.403-.54.172-.057.487.062.629.209,1.072,1.109,2.117,2.244,3.171,3.371.429.458.858.915,1.309,1.396V1.413c-.145-.018-.228-.028-.31-.037-.341-.039-.586-.204-.567-.568.019-.368.299-.502.629-.51.514-.013,1.029-.008,1.543-.003.347.003.724-.013.822.434.101.462-.25.579-.612.688-.011.214-.029.427-.031.639-.011,1.841-.008,3.682-.044,5.523-.004.228-.156.53-.338.658-.268.189-.539-.013-.748-.229-1.319-1.368-2.638-2.736-3.957-4.105-.135-.141-.269-.283-.42-.443v3.663c.18.034.277.06.376.069.306.026.488.207.495.493.007.306-.187.534-.496.545-.7.026-1.402.026-2.102.003-.281-.009-.481-.19-.489-.499-.007-.295.13-.487.439-.535.069-.011.137-.034.274-.069Z"/>
    <path class="cls-1" d="m17.318,8.197c-2.441-.055-4.11-1.796-4.001-4.276C13.409,1.823,14.982-.084,17.637.003c2.387.078,3.968,1.736,3.923,4.159-.043,2.295-1.927,4.087-4.241,4.035Zm-2.225-4.358c.032.821.214,1.584.741,2.236.972,1.204,2.905,1.124,3.535-.21.594-1.257.562-2.56-.267-3.737-.563-.8-1.405-1.001-2.327-.81-.856.178-1.347.767-1.552,1.592-.075.302-.089.619-.13.929Z"/>
    <path class="cls-1" d="m11.427,1.403c-.076-.011-.145-.019-.213-.03-.32-.054-.546-.228-.53-.564.017-.339.27-.5.587-.508.6-.016,1.201-.016,1.801.002.295.009.528.154.576.474.045.302-.122.452-.391.581-.127.061-.237.293-.241.451-.034,1.156-.005,2.314-.062,3.468-.057,1.137-.463,2.113-1.531,2.703-1.22.674-3.738.609-4.488-1.232-.246-.604-.324-1.297-.366-1.957-.06-.939-.014-1.884-.016-2.827,0-.17-.015-.34-.024-.534-.104-.025-.195-.049-.287-.07-.303-.07-.499-.255-.472-.568.027-.312.258-.484.56-.491.686-.016,1.373-.016,2.059,0,.297.007.522.164.579.477.052.281-.115.448-.585.636,0,1.436-.057,2.864.02,4.285.05.923.687,1.407,1.538,1.39.813-.017,1.409-.545,1.457-1.444.071-1.338.057-2.681.076-4.023,0-.068-.03-.136-.05-.22Z"/>
    <path class="cls-1" d="m.759,1.324c-.121-.023-.205-.037-.288-.054C.182,1.211-.007,1.028,0,.741.008.431.231.221.531.223c.971.006,1.958-.053,2.907.102,1.403.229,1.973,1.634,1.261,2.869-.071.123-.15.242-.228.367.157.133.313.254.457.389.749.704.998,1.548.665,2.529-.345,1.016-1.124,1.563-2.143,1.664-.92.091-1.857.039-2.784-.006-.178-.009-.422-.243-.496-.428-.108-.271.086-.471.359-.587.095-.04.221-.16.221-.245.013-1.839.01-3.679.01-5.552Zm1.748,3.146c0,.746-.003,1.483.005,2.22,0,.069.057.163.117.201.348.227,1.086.057,1.261-.313.249-.527.101-1.039-.18-1.505-.258-.429-.637-.68-1.204-.603Zm-.005-1.277c.374.08.737.09.779-.324.038-.377-.028-.788-.154-1.146-.059-.168-.367-.249-.625-.408v1.878Z"/>
    <path class="cls-1" d="m31.82,5.522c-.185.54-.361,1.052-.539,1.571.02.036.033.095.061.103.305.087.473.28.412.598-.065.334-.32.453-.637.455-.544.004-1.088.006-1.632,0-.353-.004-.675-.082-.716-.51-.04-.426.257-.533.599-.558.37-.027.443-.318.54-.582.653-1.766,1.301-3.534,1.951-5.301.074-.201.105-.432.226-.597.147-.2.346-.436.564-.491.317-.08.5.191.611.48.564,1.464,1.13,2.927,1.699,4.39.202.518.407,1.035.622,1.548.132.314.321.536.712.596.179.027.413.271.457.456.064.27-.14.519-.435.526-.669.015-1.339-.003-2.007-.041-.298-.017-.322-.27-.384-.526-.165-.682-.389-1.351-.606-2.019-.017-.054-.165-.089-.254-.091-.4-.01-.801-.004-1.243-.004Zm.709-2.111c-.106.319-.18.541-.265.794h.547c-.092-.258-.17-.478-.283-.794Z"/>
    <path class="cls-1" d="m20.297,10.474c-.465,0-.863-.011-1.26.004-.302.011-.408-.126-.407-.41.002-.294.165-.356.417-.353.829.008,1.659.001,2.488.012.132.002.264.065.395.1-.054.124-.094.258-.164.372-.574.929-1.153,1.854-1.773,2.846h1.761c.175.673.153.704-.456.702-.831-.002-1.662,0-2.492-.007-.119-.001-.238-.045-.357-.069.031-.144.026-.311.1-.43.566-.915,1.147-1.82,1.747-2.767Z"/>
    <path class="cls-1" d="m16.611,10.418c-.435,0-.806-.004-1.178.001-.249.003-.365-.105-.364-.36,0-.268.145-.341.383-.34.787.003,1.574-.007,2.361.003.13.002.325.045.369.131.045.088-.03.269-.099.38-.568.914-1.148,1.822-1.781,2.823.555,0,1.004.018,1.451-.006.324-.017.429.117.441.42.013.342-.214.268-.405.268-.859.001-1.718.007-2.577-.007-.139-.002-.36-.06-.395-.15-.051-.131-.014-.343.066-.47.516-.821,1.054-1.627,1.584-2.439.045-.069.081-.143.145-.256Z"/>
    <path class="cls-1" d="m11.004,13.635c-.093.064-.104.077-.116.079-1.025.128-1.028.124-1.025-.881.002-.657.009-1.313.001-1.97-.004-.335-.033-.671-.055-1.078.785-.017,1.598-.247,2.382.167.479.253.609,1.072.281,1.513-.361.485-.85.618-1.467.559v1.611Zm.003-2.141c.449-.064.651-.32.554-.768-.055-.258-.17-.541-.554-.471v1.239Z"/>
    <path class="cls-1" d="m22.002,13.637c.505-1.221.996-2.417,1.501-3.607.05-.118.199-.295.273-.282.184.033.438.116.511.257.282.547.505,1.125.751,1.692.247.57.484,1.144.747,1.707.127.271.057.362-.227.367-.82.016-.827.021-1.1-.755-.094-.268-.206-.449-.542-.403-.342.047-.779-.153-.888.402-.019.095-.07.184-.096.278-.14.514-.371.609-.929.344Zm2.017-1.553c-.085-.253-.168-.5-.273-.811-.125.293-.227.531-.346.811h.62Z"/>
    <path class="cls-1" d="m14.261,9.79c0,.794,0,1.531,0,2.268,0,.413-.012.827.012,1.239.02.351-.146.449-.462.444-.312-.006-.608.034-.599-.437.019-1.04.019-2.081.002-3.121-.005-.304.091-.418.389-.395.197.015.397.003.658.003Z"/>
  </g>
</svg>