<?xml version="1.0" standalone="no"?>
<!DOCTYPE svg PUBLIC "-//W3C//DTD SVG 20010904//EN"
 "http://www.w3.org/TR/2001/REC-SVG-20010904/DTD/svg10.dtd">
<svg version="1.0" xmlns="http://www.w3.org/2000/svg"
 width="600.000000pt" height="150.000000pt" viewBox="0 0 600.000000 150.000000"
 preserveAspectRatio="xMidYMid meet">

<g transform="translate(0.000000,150.000000) scale(0.100000,-0.100000)"
fill="#000000" stroke="none">
<path d="M0 915 l0 -585 115 0 115 0 0 585 0 585 -115 0 -115 0 0 -585z"/>
<path d="M5650 1260 c0 -13 7 -20 20 -20 18 0 20 -7 20 -60 0 -53 2 -60 20
-60 18 0 20 7 20 60 0 53 2 60 20 60 13 0 20 7 20 20 0 18 -7 20 -60 20 -53 0
-60 -2 -60 -20z"/>
<path d="M5810 1200 c0 -73 2 -80 20 -80 17 0 20 7 20 43 l0 42 20 -42 c10
-24 25 -43 33 -43 7 0 23 19 34 43 l22 42 0 -42 c1 -36 4 -43 21 -43 18 0 20
7 20 80 0 79 0 80 -25 80 -19 0 -30 -10 -48 -47 l-24 -47 -21 47 c-17 38 -26
47 -46 47 -26 0 -26 -1 -26 -80z"/>
<path d="M638 1150 c-236 -42 -385 -285 -323 -525 33 -127 104 -212 223 -268
64 -30 73 -32 187 -32 129 0 170 11 258 72 42 29 113 120 102 131 -3 4 -47 23
-97 43 l-91 36 -33 -37 c-58 -64 -146 -77 -232 -34 -49 25 -81 61 -97 112 l-6
22 297 0 297 0 -5 88 c-12 182 -100 314 -250 370 -64 24 -166 34 -230 22z
m179 -206 c31 -24 59 -60 67 -90 6 -20 1 -22 -61 -27 -86 -9 -278 -9 -286 -1
-19 19 46 106 98 130 44 21 147 14 182 -12z"/>
<path d="M1512 1150 c-123 -26 -230 -111 -284 -226 -25 -55 -32 -83 -36 -159
-10 -197 73 -339 243 -417 41 -19 67 -23 145 -23 100 0 152 17 208 68 l22 20
0 -36 0 -37 115 0 115 0 0 400 0 400 -115 0 -115 0 0 -42 0 -42 -27 27 c-60
57 -179 86 -271 67z m166 -216 c147 -61 177 -252 57 -352 -134 -110 -335 -15
-335 158 0 61 17 105 56 144 61 61 149 81 222 50z"/>
<path d="M2533 1150 c-52 -11 -100 -35 -135 -68 l-28 -26 0 42 0 42 -120 0
-120 0 0 -400 0 -400 120 0 120 0 0 248 c0 215 2 251 18 281 24 48 62 73 119
78 60 5 110 -19 138 -67 18 -32 20 -55 23 -288 l4 -252 114 0 114 0 0 277 c0
311 -6 354 -65 434 -58 81 -188 123 -302 99z"/>
<path d="M3302 1149 c-111 -21 -232 -112 -282 -210 -100 -195 -43 -432 131
-548 83 -56 152 -75 248 -69 106 7 179 38 251 105 131 121 171 300 105 466
l-23 57 29 0 29 0 0 105 0 105 -222 -1 c-123 -1 -242 -5 -266 -10z m146 -215
c141 -58 176 -232 69 -342 -38 -39 -121 -67 -170 -57 -167 35 -230 232 -111
351 61 62 138 79 212 48z"/>
<path d="M4170 1147 c-164 -38 -280 -165 -310 -339 -32 -185 62 -375 225 -453
117 -55 280 -42 357 30 15 14 30 25 33 25 3 0 5 -16 5 -35 l0 -35 115 0 115 0
0 400 0 400 -115 0 -115 0 0 -40 0 -41 -37 30 c-75 59 -174 80 -273 58z m164
-208 c50 -14 118 -82 134 -135 18 -62 15 -95 -15 -155 -90 -177 -347 -138
-388 59 -12 58 13 130 61 178 59 59 125 76 208 53z"/>
<path d="M5193 1150 c-52 -11 -100 -35 -135 -68 l-28 -26 0 42 0 42 -115 0
-115 0 0 -570 0 -570 115 0 115 0 0 206 0 205 34 -26 c152 -116 401 -68 513
98 55 81 75 151 75 252 0 215 -128 377 -327 414 -65 12 -72 12 -132 1z m108
-211 c89 -30 143 -106 143 -199 -1 -116 -88 -203 -204 -204 -93 0 -169 54
-199 143 -52 156 104 312 260 260z"/>
<path d="M2970 115 l0 -115 410 0 410 0 0 115 0 115 -410 0 -410 0 0 -115z"/>
</g>
</svg>
